<?xml version="1.0" encoding="iso-8859-1"?>
<!-- Generator: Adobe Illustrator 19.0.0, SVG Export Plug-In . SVG Version: 6.00 Build 0)  -->
<svg version="1.1" id="Layer_1" xmlns="http://www.w3.org/2000/svg" xmlns:xlink="http://www.w3.org/1999/xlink" x="0px" y="0px"
	 viewBox="0 0 294.5 294.5" style="enable-background:new 0 0 294.5 294.5;" xml:space="preserve">
<g>
	<circle style="fill:#28D2E4;" cx="147.25" cy="153.5" r="119"/>
	<path style="fill:#13829B;" d="M147.25,34.5c8.133,0,16.075,0.819,23.75,2.373V7.5h-47.5v29.373
		C131.175,35.319,139.117,34.5,147.25,34.5z"/>
	<path style="fill:#13829B;" d="M276.852,262.85l-26.16-50.489c-8.856,15.53-21.11,28.868-35.748,39.012L227,275.704
		c2.65,6.81,9.209,11.296,16.516,11.296h16.819C272.803,287,281.373,274.468,276.852,262.85z"/>
	<path style="fill:#13829B;" d="M43.808,212.36l-26.16,50.49C13.127,274.468,21.697,287,34.165,287h16.819
		c7.308,0,13.866-4.485,16.516-11.296l12.056-24.332C64.918,241.229,52.664,227.891,43.808,212.36z"/>
	<circle style="fill:#FFDB77;" cx="147.25" cy="153.5" r="84.146"/>
	<g>
		<path style="fill:#22313F;" d="M283.841,260.129c-0.097-0.249-0.207-0.493-0.33-0.73l-24.345-46.988
			c9.305-17.605,14.584-37.652,14.584-58.912c0-58.971-40.562-108.643-95.25-122.591V7.5c0-4.142-3.358-7.5-7.5-7.5h-47.5
			c-4.142,0-7.5,3.358-7.5,7.5v23.409C61.312,44.857,20.75,94.529,20.75,153.5c0,21.26,5.279,41.307,14.584,58.912L10.989,259.4
			c-0.123,0.237-0.233,0.481-0.33,0.73c-6.44,16.55,5.813,34.37,23.506,34.37h16.819c10.358,0,19.493-6.165,23.373-15.739
			l8.218-16.586C101.511,273.488,123.633,280,147.25,280s45.739-6.512,64.676-17.825l8.218,16.586
			c3.88,9.574,13.015,15.739,23.373,15.739h16.819C278.027,294.5,290.282,276.681,283.841,260.129z M131,28.039V15h32.5v13.039
			C158.065,27.347,152.37,27,147.25,27c-4.989,0-10.804,0.342-16.171,1.03C131.053,28.033,131.026,28.035,131,28.039z
			 M60.78,272.375c-0.099,0.199-0.188,0.402-0.269,0.609c-1.54,3.958-5.28,6.516-9.527,6.516H34.165
			c-7.1,0-11.975-7.003-9.648-13.603L44.514,227.3c7.175,9.951,15.812,18.89,25.521,26.394L60.78,272.375z M35.75,153.5
			c0-55.709,41.068-102.007,94.519-110.209c0.009-0.001,0.018-0.003,0.027-0.004c11.374-1.743,23.142-1.65,33.909,0
			c0.009,0.001,0.018,0.003,0.027,0.004c53.451,8.202,94.519,54.5,94.519,110.209c0,61.481-50.019,111.5-111.5,111.5
			S35.75,214.981,35.75,153.5z M260.335,279.5h-16.819c-4.247,0-7.987-2.558-9.527-6.516c-0.081-0.207-0.171-0.411-0.269-0.609
			l-9.256-18.681c9.71-7.504,18.346-16.443,25.521-26.394l19.998,38.597C272.308,272.491,267.443,279.5,260.335,279.5z"/>
		<path style="fill:#22313F;" d="M147.25,61.855c-50.534,0-91.646,41.112-91.646,91.645s41.112,91.646,91.646,91.646
			s91.645-41.112,91.645-91.646S197.784,61.855,147.25,61.855z M154.75,229.774V217.5c0-4.142-3.358-7.5-7.5-7.5s-7.5,3.358-7.5,7.5
			v12.274c-36.287-3.541-65.233-32.487-68.774-68.774H83.25c4.142,0,7.5-3.358,7.5-7.5s-3.358-7.5-7.5-7.5H70.976
			c3.541-36.287,32.487-65.233,68.774-68.774V89.5c0,4.142,3.358,7.5,7.5,7.5s7.5-3.358,7.5-7.5V77.226
			c36.287,3.541,65.233,32.487,68.774,68.774H211.25c-4.142,0-7.5,3.358-7.5,7.5s3.358,7.5,7.5,7.5h12.274
			C219.983,197.287,191.037,226.233,154.75,229.774z"/>
		<path style="fill:#22313F;" d="M167.583,146H154.75v-29.5c0-4.142-3.358-7.5-7.5-7.5s-7.5,3.358-7.5,7.5v37
			c0,4.142,3.358,7.5,7.5,7.5h20.333c4.142,0,7.5-3.358,7.5-7.5C175.083,149.358,171.726,146,167.583,146z"/>
	</g>
</g>
<g>
</g>
<g>
</g>
<g>
</g>
<g>
</g>
<g>
</g>
<g>
</g>
<g>
</g>
<g>
</g>
<g>
</g>
<g>
</g>
<g>
</g>
<g>
</g>
<g>
</g>
<g>
</g>
<g>
</g>
</svg>
