<?xml version="1.0" encoding="iso-8859-1"?>
<!-- Generator: Adobe Illustrator 19.0.0, SVG Export Plug-In . SVG Version: 6.00 Build 0)  -->
<svg version="1.1" id="Layer_1" xmlns="http://www.w3.org/2000/svg" xmlns:xlink="http://www.w3.org/1999/xlink" x="0px" y="0px"
	 viewBox="0 0 512 512" style="enable-background:new 0 0 512 512;" xml:space="preserve">
<g transform="translate(-1)">
	<g>
		<g>
			<path d="M298.338,317.312c12.015-15.232,18.364-33.485,18.364-52.779c0-47.053-38.281-85.333-85.333-85.333
				s-85.333,38.281-85.333,85.333s38.281,85.333,85.333,85.333c15.258,0,30.327-4.173,43.563-12.066
				c1.365-0.802,2.867-1.203,4.369-1.203c2.21,0,4.395,0.853,6.033,2.5l87.569,87.569l12.066-12.066l-85.965-85.973
				C295.94,325.572,295.658,320.708,298.338,317.312z M231.368,332.8c-37.641,0-68.267-30.626-68.267-68.267
				c0-37.641,30.626-68.267,68.267-68.267c37.641,0,68.267,30.626,68.267,68.267C299.635,302.174,269.009,332.8,231.368,332.8z"/>
			<path d="M489.596,188.817L293.543,14.916c-20.531-19.789-52.736-19.789-73.114-0.171l-65.86,59.836V51.2h8.533
				c4.719,0,8.533-3.823,8.533-8.533V8.533c0-4.71-3.814-8.533-8.533-8.533h-102.4c-4.719,0-8.533,3.823-8.533,8.533v34.133
				c0,4.71,3.814,8.533,8.533,8.533h8.533v98.509l-44.774,38.886c-5.973,5.291-8.004,13.534-5.171,20.992
				s9.822,12.279,17.801,12.279h32.145V460.8h-8.533c-4.719,0-8.533,3.823-8.533,8.533v34.133c0,4.71,3.814,8.533,8.533,8.533
				h392.533c4.719,0,8.533-3.823,8.533-8.533v-34.133c0-4.71-3.814-8.533-8.533-8.533h-8.533V221.867h32.341
				c7.927,0,14.865-4.787,17.673-12.194C497.532,202.266,495.518,194.082,489.596,188.817z M403.068,420.634l-24.132,24.132
				c-1.664,1.664-3.849,2.5-6.033,2.5c-2.185,0-4.369-0.836-6.033-2.5l-89.062-89.062c-14.396,7.364-30.319,11.23-46.438,11.23
				c-56.465,0-102.4-45.935-102.4-102.4c0-56.465,45.935-102.4,102.4-102.4c56.465,0,102.4,45.935,102.4,102.4
				c0,20.625-6.042,40.243-17.536,57.199l86.835,86.835C406.405,411.904,406.405,417.297,403.068,420.634z"/>
		</g>
	</g>
</g>
<g>
</g>
<g>
</g>
<g>
</g>
<g>
</g>
<g>
</g>
<g>
</g>
<g>
</g>
<g>
</g>
<g>
</g>
<g>
</g>
<g>
</g>
<g>
</g>
<g>
</g>
<g>
</g>
<g>
</g>
</svg>
