<?xml version="1.0" encoding="iso-8859-1"?>
<!-- Generator: Adobe Illustrator 19.0.0, SVG Export Plug-In . SVG Version: 6.00 Build 0)  -->
<svg version="1.1" id="Layer_1" xmlns="http://www.w3.org/2000/svg" xmlns:xlink="http://www.w3.org/1999/xlink" x="0px" y="0px"
	 viewBox="0 0 512 512" style="enable-background:new 0 0 512 512;" xml:space="preserve">
<polygon style="fill:#25B6D2;" points="59.52,512 59.52,212.4 256,70.912 452.48,212.4 452.48,512 "/>
<path style="fill:#FFFFFF;" d="M243.776,441.376v-27.04c-19.056-0.848-37.584-5.968-48.384-12.24l8.544-33.312
	c11.952,6.544,28.752,12.528,47.248,12.528c16.224,0,27.328-6.272,27.328-17.664c0-10.816-9.104-17.648-30.176-24.768
	c-30.464-10.256-51.248-24.48-51.248-52.096c0-25.04,17.664-44.688,48.112-50.672v-27.04h27.904v25.056
	c19.056,0.848,31.872,4.832,41.264,9.392l-8.256,32.16c-7.408-3.12-20.496-9.664-40.992-9.664c-18.512,0-24.48,7.968-24.48,15.936
	c0,9.408,9.952,15.376,34.16,24.48c33.872,11.968,47.552,27.632,47.552,53.232c0,25.344-17.936,46.976-50.672,52.672v29.024h-27.904
	V441.376z"/>
<polygon style="fill:#2C3E50;" points="256,0 20.016,168.784 20.016,207.184 256,38.4 491.984,207.184 491.984,168.784 "/>
<g>
</g>
<g>
</g>
<g>
</g>
<g>
</g>
<g>
</g>
<g>
</g>
<g>
</g>
<g>
</g>
<g>
</g>
<g>
</g>
<g>
</g>
<g>
</g>
<g>
</g>
<g>
</g>
<g>
</g>
</svg>
